<svg xmlns="http://www.w3.org/2000/svg" width="26" height="26" viewBox="0 0 26 26"><defs><style>.a{fill:none;}.b{fill:#fff;}</style></defs><g transform="translate(-506 -37)"><rect class="a" width="26" height="26" transform="translate(506 37)"/><g transform="translate(-64.403 -304.612)"><path class="b" d="M600.085,394.574a.933.933,0,0,0-.689.291,1.014,1.014,0,0,0,0,1.412.932.932,0,0,0,.689.292,1,1,0,0,0,0-2Z" transform="translate(-23.623 -42.032)"/><path class="b" d="M656.211,394.517a.927.927,0,0,0-.688.291,1.012,1.012,0,0,0,0,1.412.93.93,0,0,0,.688.292,1,1,0,0,0,0-2Z" transform="translate(-71.421 -41.984)"/><path class="b" d="M693.643,394.574a.935.935,0,0,0-.689.291,1.014,1.014,0,0,0,0,1.412.934.934,0,0,0,.689.292,1,1,0,0,0,0-2Z" transform="translate(-103.298 -42.032)"/><path class="b" d="M592.814,345.218h-18.82a2.632,2.632,0,0,0-2.624,2.624v10.644a2.632,2.632,0,0,0,2.624,2.624h7.39s1.427,3.9,1.947,3.9,2.064-3.9,2.064-3.9h7.419a2.632,2.632,0,0,0,2.624-2.624V347.842A2.632,2.632,0,0,0,592.814,345.218Zm-14.448,9.826a2.3,2.3,0,0,1-2.846.2H575.5v.3h-1.413v-6.162H575.5v2.356h.018a2.323,2.323,0,0,1,1.489-.457,1.868,1.868,0,0,1,1.364.672,2.469,2.469,0,0,1,.55,1.584A2.023,2.023,0,0,1,578.366,355.044Zm3.032.542h-1.441v-3.814a.917.917,0,0,0-.7-1V349.25a2.429,2.429,0,0,1,2.136,2.57Zm5.654-1.169a2.239,2.239,0,0,1-.53.739,2.412,2.412,0,0,1-.789.492,2.613,2.613,0,0,1-.942.172,2.545,2.545,0,0,1-.927-.172,2.476,2.476,0,0,1-.79-.492,2.342,2.342,0,0,1-.541-.748,2.153,2.153,0,0,1,0-1.738,2.355,2.355,0,0,1,.541-.748,2.475,2.475,0,0,1,.79-.493,2.538,2.538,0,0,1,.927-.171,2.606,2.606,0,0,1,.942.171,2.411,2.411,0,0,1,.789.493,2.237,2.237,0,0,1,.53.739,2.222,2.222,0,0,1,0,1.755Zm5.666.612a2.807,2.807,0,0,1-.688,2.2,2.453,2.453,0,0,1-2.08.485V356.6a1.2,1.2,0,0,0,1.364-1.065v-.287H591.3a1.6,1.6,0,0,1-1.418.607,1.821,1.821,0,0,1-1.424-.614,2.385,2.385,0,0,1-.511-1.6,2.656,2.656,0,0,1,.569-1.79,1.949,1.949,0,0,1,1.538-.648,1.664,1.664,0,0,1,1.245.445h.017V351.3h1.4Z"/></g></g></svg>