<svg xmlns="http://www.w3.org/2000/svg" xmlns:xlink="http://www.w3.org/1999/xlink" width="151" height="151" viewBox="0 0 151 151"><defs><style>.a{fill:#1d1f26;stroke:#484a50;opacity:0.95;}.b{fill:url(#a);}.c,.e{fill:none;}.c{stroke:#1f1f21;stroke-width:3.8px;}.d{stroke:none;}</style><linearGradient id="a" y1="0.039" x2="1" y2="1" gradientUnits="objectBoundingBox"><stop offset="0" stop-color="#deeacf"/><stop offset="0.294" stop-color="#9cd6a4"/><stop offset="0.719" stop-color="#7aadda"/><stop offset="1" stop-color="#8d86e1"/></linearGradient></defs><g transform="translate(-1277 -5388)"><g class="a" transform="translate(1277 5388)"><rect class="d" width="151" height="151" rx="10"/><rect class="e" x="0.5" y="0.5" width="150" height="150" rx="9.5"/></g><g transform="translate(0 -3842)"><rect class="b" width="25" height="41" rx="12" transform="translate(1342 9274)"/><g transform="translate(1325.617 9280.515)"><path class="b" d="M45.223,15.75v7a16.34,16.34,0,0,1-32.679,0v-7H7.875v7A21.008,21.008,0,0,0,26.549,43.62v4.81H17.212V53.1H40.554V48.429H31.217V43.622A21.008,21.008,0,0,0,49.891,22.753v-7Z" transform="translate(0 0)"/></g><path class="c" d="M-1173,14805.2h9.224" transform="translate(2515 -5515)"/><path class="c" d="M-1173,14805.2h9.224" transform="translate(2515 -5508)"/></g></g></svg>