<svg xmlns="http://www.w3.org/2000/svg" xmlns:xlink="http://www.w3.org/1999/xlink" width="151" height="151" viewBox="0 0 151 151"><defs><style>.a{fill:#1d1f26;stroke:#484a50;opacity:0.95;}.b{fill:url(#a);}.c{stroke:none;}.d{fill:none;}</style><linearGradient id="a" y1="0.039" x2="1" y2="1" gradientUnits="objectBoundingBox"><stop offset="0" stop-color="#deeacf"/><stop offset="0.294" stop-color="#9cd6a4"/><stop offset="0.719" stop-color="#7aadda"/><stop offset="1" stop-color="#8d86e1"/></linearGradient></defs><g transform="translate(-494 -5388)"><g class="a" transform="translate(494 5388)"><rect class="c" width="151" height="151" rx="10"/><rect class="d" x="0.5" y="0.5" width="150" height="150" rx="9.5"/></g><g transform="translate(-3 -3841)"><g transform="translate(560.019 9273.015)"><path class="b" d="M1976.944-14733.03l-2.163-13.646c-.177-.2-.272-.307-.272-.307-5.155,0-11.042-3.7-11.042-8.855v-3.809h-5.486l5.563-15.379a15.551,15.551,0,0,1,15.474-13.99c8.589,0,17.968,6.963,17.968,15.552,0,0,.82,3.455-3.314,23.791-.017.084-.034.166-.052.249l.95,16.394Z" transform="translate(-1957.981 14789.015)"/></g><path class="b" d="M14.482,18.662A13.964,13.964,0,0,0,10.254,8.407,13.963,13.963,0,0,0,0,4.179V0A18,18,0,0,1,13.219,5.443a18,18,0,0,1,5.443,13.219H14.483Zm-8.262,0a6.014,6.014,0,0,0-1.8-4.423A6,6,0,0,0,0,12.441V8.262a10.01,10.01,0,0,1,7.338,3.062A10.01,10.01,0,0,1,10.4,18.662H6.221Z" transform="translate(544.468 9325.607) rotate(-135)"/></g></g></svg>