<svg xmlns="http://www.w3.org/2000/svg" width="26" height="26" viewBox="0 0 26 26"><defs><style>.a{fill:none;}.b{fill:#fff;fill-rule:evenodd;}</style></defs><g transform="translate(-368 -37)"><rect class="a" width="26" height="26" transform="translate(368 37)"/><path class="b" d="M13.393,3c-2.823,0-3.176.012-4.285.062a7.649,7.649,0,0,0-2.523.484,5.312,5.312,0,0,0-3.04,3.04,7.663,7.663,0,0,0-.484,2.523C3.012,10.217,3,10.57,3,13.393s.012,3.176.062,4.285A7.649,7.649,0,0,0,3.546,20.2a5.31,5.31,0,0,0,3.04,3.04,7.663,7.663,0,0,0,2.523.484c1.109.05,1.463.062,4.285.062s3.176-.012,4.285-.062a7.649,7.649,0,0,0,2.523-.484,5.31,5.31,0,0,0,3.04-3.04,7.663,7.663,0,0,0,.484-2.523c.05-1.109.062-1.463.062-4.285s-.012-3.176-.062-4.285a7.649,7.649,0,0,0-.484-2.523,5.31,5.31,0,0,0-3.04-3.04,7.663,7.663,0,0,0-2.523-.484C16.569,3.012,16.216,3,13.393,3m0,1.873c2.775,0,3.1.01,4.2.06a5.774,5.774,0,0,1,1.931.358A3.441,3.441,0,0,1,21.5,7.263a5.768,5.768,0,0,1,.358,1.93c.05,1.1.06,1.424.06,4.2s-.01,3.1-.06,4.2a5.811,5.811,0,0,1-.358,1.931A3.441,3.441,0,0,1,19.523,21.5a5.768,5.768,0,0,1-1.93.358c-1.1.05-1.424.06-4.2.06s-3.1-.01-4.2-.06A5.811,5.811,0,0,1,7.263,21.5a3.441,3.441,0,0,1-1.973-1.973,5.732,5.732,0,0,1-.358-1.93c-.05-1.1-.06-1.424-.06-4.2s.01-3.1.06-4.2a5.774,5.774,0,0,1,.358-1.931A3.441,3.441,0,0,1,7.263,5.291a5.732,5.732,0,0,1,1.93-.358c1.1-.05,1.424-.06,4.2-.06m0,11.985a3.464,3.464,0,1,1,3.464-3.464,3.464,3.464,0,0,1-3.464,3.464m0-8.8a5.337,5.337,0,1,0,5.337,5.337,5.337,5.337,0,0,0-5.337-5.337m6.8-.211A1.247,1.247,0,1,1,18.941,6.6a1.247,1.247,0,0,1,1.247,1.247" transform="translate(367.605 36.605)"/></g></svg>