<svg xmlns="http://www.w3.org/2000/svg" xmlns:xlink="http://www.w3.org/1999/xlink" width="94" height="52" viewBox="0 0 94 52"><defs><style>.a{fill:url(#a);}.b{fill:#fff;}.c{filter:url(#b);}</style><linearGradient id="a" x1="0.149" y1="0.3" x2="0.967" y2="0.75" gradientUnits="objectBoundingBox"><stop offset="0" stop-color="#f62307"/><stop offset="1" stop-color="#f6601d"/></linearGradient><filter id="b" x="0" y="0" width="94" height="52" filterUnits="userSpaceOnUse"><feOffset dy="3" input="SourceAlpha"/><feGaussianBlur stdDeviation="3" result="c"/><feFlood flood-color="red" flood-opacity="0.608"/><feComposite operator="in" in2="c"/><feComposite in="SourceGraphic"/></filter></defs><g transform="translate(-782 -418)"><g class="c" transform="matrix(1, 0, 0, 1, 782, 418)"><rect class="a" width="76" height="34" rx="17" transform="translate(9 6)"/></g><path class="b" d="M3.887-16.1H7.636L5.014-3.036h8.073L12.466,0H.667Zm13.317,0h3.749L17.733,0H13.984Zm22.356,0L29.371,0H25.714L21.965-16.1h3.841L28.4-4.623,35.7-16.1Zm3.864,2.99-.69,3.5h7.475l-.575,2.9h-7.5L41.4-2.99h8.786L49.565,0H37.1l3.22-16.1H52.486l-.621,2.99Z" transform="translate(803 449)"/></g></svg>