<svg xmlns="http://www.w3.org/2000/svg" xmlns:xlink="http://www.w3.org/1999/xlink" width="25.078" height="25" viewBox="0 0 25.078 25"><defs><style>.a{fill:#c0c3c7;}.b{fill:none;}.c{fill:url(#a);}</style><linearGradient id="a" x2="0.821" y2="0.807" gradientUnits="objectBoundingBox"><stop offset="0" stop-color="#deeacf"/><stop offset="0.294" stop-color="#9cd6a4"/><stop offset="0.719" stop-color="#7aadda"/><stop offset="1" stop-color="#8d86e1"/></linearGradient></defs><g transform="translate(-370 -2810)"><path class="a" d="M11.8-57.422a3.8,3.8,0,0,1,2.227.039A5.545,5.545,0,0,1,15.9-56.328a5.435,5.435,0,0,1,1.328,1.719,4.507,4.507,0,0,1,.508,2.031,5.479,5.479,0,0,1-1.484,3.711,4.961,4.961,0,0,1-3.906,1.68,5.359,5.359,0,0,1-4.57-2.148,8.7,8.7,0,0,1-1.6-5.352A13.542,13.542,0,0,1,8.516-62.5a12.84,12.84,0,0,1,6.953-4.922l1.484,2.031a10.635,10.635,0,0,0-4.414,3.008,6.575,6.575,0,0,0-1.6,4.336Q10.938-57.109,11.8-57.422Zm13.516,0a3.941,3.941,0,0,1,2.266.039,5.482,5.482,0,0,1,1.914,1.055,4.982,4.982,0,0,1,1.289,1.719,4.811,4.811,0,0,1,.469,2.031,5.479,5.479,0,0,1-1.484,3.711,4.961,4.961,0,0,1-3.906,1.68,5.359,5.359,0,0,1-4.57-2.148,8.7,8.7,0,0,1-1.6-5.352A13.542,13.542,0,0,1,22.031-62.5a12.84,12.84,0,0,1,6.953-4.922l1.484,2.031a10.635,10.635,0,0,0-4.414,3.008,6.575,6.575,0,0,0-1.6,4.336Q24.453-57.109,25.313-57.422Z" transform="translate(363.828 2881.766)"/><rect class="b" width="25" height="25" transform="translate(370 2810)"/><path class="c" d="M11.8-57.422a3.8,3.8,0,0,1,2.227.039A5.545,5.545,0,0,1,15.9-56.328a5.435,5.435,0,0,1,1.328,1.719,4.507,4.507,0,0,1,.508,2.031,5.479,5.479,0,0,1-1.484,3.711,4.961,4.961,0,0,1-3.906,1.68,5.359,5.359,0,0,1-4.57-2.148,8.7,8.7,0,0,1-1.6-5.352A13.542,13.542,0,0,1,8.516-62.5a12.84,12.84,0,0,1,6.953-4.922l1.484,2.031a10.635,10.635,0,0,0-4.414,3.008,6.575,6.575,0,0,0-1.6,4.336Q10.938-57.109,11.8-57.422Zm13.516,0a3.941,3.941,0,0,1,2.266.039,5.482,5.482,0,0,1,1.914,1.055,4.982,4.982,0,0,1,1.289,1.719,4.811,4.811,0,0,1,.469,2.031,5.479,5.479,0,0,1-1.484,3.711,4.961,4.961,0,0,1-3.906,1.68,5.359,5.359,0,0,1-4.57-2.148,8.7,8.7,0,0,1-1.6-5.352A13.542,13.542,0,0,1,22.031-62.5a12.84,12.84,0,0,1,6.953-4.922l1.484,2.031a10.635,10.635,0,0,0-4.414,3.008,6.575,6.575,0,0,0-1.6,4.336Q24.453-57.109,25.313-57.422Z" transform="translate(363.828 2881.766)"/></g></svg>