<svg xmlns="http://www.w3.org/2000/svg" width="26" height="26" viewBox="0 0 26 26"><defs><style>.a{fill:none;}.b{fill:#fff;}</style></defs><g transform="translate(-460 -37)"><rect class="a" width="26" height="26" transform="translate(460 37)"/><g transform="translate(422.509 -21.687)"><path class="b" d="M40.941,62.136v19.1h19.1v-19.1ZM50.4,71.73c-.018,0-.035.006-.053.006l-.035,0-.035,0c-.018,0-.035,0-.053-.006a4.1,4.1,0,0,1-3.095-1.339c-1.839-2.042-1.481-5.671-1.465-5.824a.61.61,0,0,1,1.214.127c0,.033-.316,3.249,1.16,4.883a3.228,3.228,0,0,0,4.55,0c1.479-1.642,1.161-4.848,1.158-4.88a.61.61,0,1,1,1.214-.127c.016.153.374,3.783-1.465,5.824A4.1,4.1,0,0,1,50.4,71.73Zm7.741,7.656H56.5l-1.282-1.8v1.8H53.569v-4.24h1.643v.024L56.5,77.009V75.146h1.643Z"/></g></g></svg>