<svg xmlns="http://www.w3.org/2000/svg" width="26" height="26" viewBox="0 0 26 26"><defs><style>.a{fill:none;}.b{fill:#fff;stroke:rgba(0,0,0,0);stroke-miterlimit:10;}</style></defs><g transform="translate(-414 -37)"><rect class="a" width="26" height="26" transform="translate(414 37)"/><g transform="translate(415.628 37.834)"><path class="b" d="M11576.254-5278.506h0c-.057,0-5.674-.054-7.4-.232-.078-.016-.171-.027-.279-.042l-.017,0a3.1,3.1,0,0,1-2.105-.948,5.221,5.221,0,0,1-.864-2.3v-.006c-.021-.2-.217-2-.217-3.754v-1.759c0-1.754.2-3.552.217-3.751v-.006a5.265,5.265,0,0,1,.864-2.306,2.908,2.908,0,0,1,2.044-.968l.137-.015c3.013-.233,7.567-.235,7.613-.235h.012c.046,0,4.6,0,7.616.235l.136.015a2.911,2.911,0,0,1,2.045.968,5.276,5.276,0,0,1,.863,2.306v.006c.022.2.218,2,.218,3.751v1.762c0,1.753-.2,3.551-.218,3.75v.006a5.232,5.232,0,0,1-.863,2.3,2.91,2.91,0,0,1-2.047.968l-.134.015C11580.841-5278.513,11576.3-5278.506,11576.254-5278.506Zm-2.716-12.246h0v8.166l6.8-4.083-6.8-4.083Z" transform="translate(-11565.372 5298.834)"/></g></g></svg>